<?xml version="1.0" encoding="UTF-8"?>
<svg width="64px" height="65px" viewBox="0 0 64 65" version="1.1" xmlns="http://www.w3.org/2000/svg" xmlns:xlink="http://www.w3.org/1999/xlink">
    <title>Feedback_successed</title>
    <g id="swap" stroke="none" stroke-width="1" fill="none" fill-rule="evenodd">
        <g id="swap确认流3" transform="translate(-853.000000, -413.000000)" fill="#73D13D">
            <g id="编组-2" transform="translate(685.000000, 153.000000)">
                <g id="Feedback_successed" transform="translate(168.000000, 260.500000)">
                    <path d="M32,0 C14.3285714,0 0,14.3285714 0,32 C0,49.6714286 14.3285714,64 32,64 C49.6714286,64 64,49.6714286 64,32 C64,14.3285714 49.6714286,0 32,0 Z M45.8214286,21.55 L30.7785714,42.4071429 C30.3520106,43.0025079 29.6645455,43.355662 28.9321429,43.355662 C28.1997402,43.355662 27.5122751,43.0025079 27.0857143,42.4071429 L18.1785714,30.0642857 C17.9071429,29.6857143 18.1785714,29.1571429 18.6428571,29.1571429 L21.9928571,29.1571429 C22.7214286,29.1571429 23.4142857,29.5071429 23.8428571,30.1071429 L28.9285714,37.1642857 L40.1571429,21.5928571 C40.5857143,21 41.2714286,20.6428571 42.0071429,20.6428571 L45.3571429,20.6428571 C45.8214286,20.6428571 46.0928571,21.1714286 45.8214286,21.55 Z" id="形状"></path>
                </g>
            </g>
        </g>
    </g>
</svg>