<?xml version="1.0" encoding="UTF-8"?>
<svg width="64px" height="65px" viewBox="0 0 64 65" version="1.1" xmlns="http://www.w3.org/2000/svg" xmlns:xlink="http://www.w3.org/1999/xlink">
    <title>Feedback_failure</title>
    <g id="swap" stroke="none" stroke-width="1" fill="none" fill-rule="evenodd">
        <g id="swap确认流3" transform="translate(-303.000000, -413.000000)" fill="#FF3B30">
            <g id="编组-2" transform="translate(135.000000, 153.000000)">
                <g id="Feedback_failure" transform="translate(168.000000, 260.500000)">
                    <path d="M32,0 C14.3285714,0 0,14.3285714 0,32 C0,49.6714286 14.3285714,64 32,64 C49.6714286,64 64,49.6714286 64,32 C64,14.3285714 49.6714286,0 32,0 Z M28.4444444,16.5714286 C28.4444444,16.2571429 28.8044444,16 29.2444444,16 L34.0444444,16 C34.4844444,16 34.8444444,16.2571429 34.8444444,16.5714286 L34.8444444,36 C34.8444444,36.3142857 34.4844444,36.5714286 34.0444444,36.5714286 L29.2444444,36.5714286 C28.8044444,36.5714286 28.4444444,36.3142857 28.4444444,36 L28.4444444,16.5714286 Z M32,48 C30.0246908,47.9604918 28.4444444,46.3802455 28.4444444,44.4444444 C28.4444444,42.5086434 30.0246908,40.9283971 32,40.8888889 C33.9753092,40.9283971 35.5555556,42.5086434 35.5555556,44.4444444 C35.5555556,46.3802455 33.9753092,47.9604918 32,48 L32,48 Z" id="形状"></path>
                </g>
            </g>
        </g>
    </g>
</svg>