<?xml version="1.0" encoding="UTF-8"?>
<svg width="24px" height="24px" viewBox="0 0 24 24" version="1.1" xmlns="http://www.w3.org/2000/svg" xmlns:xlink="http://www.w3.org/1999/xlink">
    <title>icon_exchange</title>
    <g id="swap" stroke="none" stroke-width="1" fill="none" fill-rule="evenodd">
        <g id="swap2" transform="translate(-560.000000, -297.000000)">
            <g id="icon_exchange" transform="translate(560.000000, 297.000000)">
                <circle id="椭圆形" stroke="#D9D9D9" fill="#FFFFFF" cx="12" cy="12" r="11.5"></circle>
                <g id="7.Icon/arrow/22.swap" transform="translate(12.400000, 12.242857) rotate(-90.000000) translate(-12.400000, -12.242857) translate(6.900000, 6.242857)" fill="#000000" fill-rule="nonzero">
                    <path d="M9.64151786,7.45714286 L0.321428571,7.45714286 C0.2625,7.45714286 0.214285714,7.515 0.214285714,7.58571429 L0.214285714,8.55 C0.214285714,8.62071429 0.2625,8.67857143 0.321428571,8.67857143 L8.42678571,8.67857143 L6.49419643,11.6196429 C6.43928571,11.7032143 6.48883929,11.8285714 6.57857143,11.8285714 L7.54955357,11.8285714 C7.61517857,11.8285714 7.67678571,11.7932143 7.71830357,11.7305357 L9.97901786,8.28964286 C10.2,7.95214286 10.0004464,7.45714286 9.64151786,7.45714286 L9.64151786,7.45714286 Z M9.96428571,3.66428571 L1.85892857,3.66428571 L3.79151786,0.723214286 C3.84642857,0.639642857 3.796875,0.514285714 3.70714286,0.514285714 L2.73616071,0.514285714 C2.67053571,0.514285714 2.60892857,0.549642857 2.56741071,0.612321429 L0.306696429,4.05321429 C0.0857142857,4.39071429 0.285267857,4.88571429 0.642857143,4.88571429 L9.96428571,4.88571429 C10.0232143,4.88571429 10.0714286,4.82785714 10.0714286,4.75714286 L10.0714286,3.79285714 C10.0714286,3.72214286 10.0232143,3.66428571 9.96428571,3.66428571 Z" id="fill"></path>
                </g>
            </g>
        </g>
    </g>
</svg>