<?xml version="1.0" encoding="UTF-8"?>
<svg width="20px" height="20px" viewBox="0 0 20 20" version="1.1" xmlns="http://www.w3.org/2000/svg" xmlns:xlink="http://www.w3.org/1999/xlink">
    <title>PCX</title>
    <defs>
        <polygon id="path-1" points="0 6.67218087e-05 6.54839523 6.67218087e-05 6.54839523 6.5509807 0 6.5509807"></polygon>
        <polygon id="path-3" points="2.50206782e-05 0.157129859 5.1710903 0.157129859 5.1710903 4.00330852 2.50206782e-05 4.00330852"></polygon>
    </defs>
    <g id="swap" stroke="none" stroke-width="1" fill="none" fill-rule="evenodd">
        <g id="swap3" transform="translate(-1012.000000, -257.000000)">
            <g id="编组-13" transform="translate(996.000000, 57.000000)">
                <g id="编组-24" transform="translate(0.000000, 188.000000)">
                    <g id="PCX" transform="translate(16.000000, 12.000000)">
                        <circle id="椭圆形备份-4" fill="#F2F2F2" cx="10" cy="10" r="10"></circle>
                        <g id="ChainX-Logo" transform="translate(4.888889, 4.888889)">
                            <g id="编组">
                                <mask id="mask-2" fill="white">
                                    <use xlink:href="#path-1"></use>
                                </mask>
                                <g id="Clip-2"></g>
                                <path d="M5.93588903,2.97961249 L4.29553336,1.33858961 C4.26283967,1.30589592 4.20979584,1.30589592 4.17726896,1.33858961 L3.52656452,1.98946085 C3.49387083,2.02215454 3.49387083,2.07519837 3.52656452,2.10772526 L5.15074014,3.7327349 C5.54790171,4.12989647 5.55841039,4.79060918 5.15474345,5.18109857 C4.76241922,5.56041205 4.1347338,5.55640874 3.7474137,5.16892184 L1.38145837,2.80213248 C0.994138269,2.41464557 0.99013496,1.78679336 1.36944844,1.39430232 C1.75960422,0.990301765 2.42015012,1.00081045 2.81714489,1.39813882 L3.05334009,1.63450083 C3.08603377,1.66719451 3.13907761,1.66719451 3.1717713,1.63450083 L3.82230893,0.983629584 C3.85500262,0.950935897 3.85500262,0.89789206 3.82230893,0.865198373 L3.56993369,0.612823132 C2.75325875,-0.204185415 1.42916446,-0.204185415 0.612489523,0.612823132 C-0.204185415,1.42966487 -0.204185415,2.75425958 0.612489523,3.57126813 L2.97844486,5.93822429 C3.7951198,6.75523284 5.11921409,6.75523284 5.93588903,5.93822429 C6.75256396,5.12121574 6.75256396,3.79662104 5.93588903,2.97961249" id="Fill-1" fill="#EA754B" mask="url(#mask-2)"></path>
                            </g>
                            <path d="M9.72947422,0.612906534 C8.91263248,-0.204268817 7.58853819,-0.204268817 6.77203005,0.612906534 L5.17087345,2.21456355 L5.93600579,2.97969589 C5.93717342,2.98103033 5.93834105,2.98236476 5.93967549,2.9835324 L7.54066529,1.38187538 C7.9323223,0.990718776 8.56918197,0.990718776 8.96033857,1.38187538 C9.35166198,1.7735324 9.35166198,2.41072567 8.96033857,2.80238269 L8.70829694,3.05442432 C8.67560325,3.087118 8.67560325,3.14016184 8.70829694,3.17285553 L9.35900138,3.82372677 C9.39169506,3.85642046 9.4445721,3.85642046 9.47726578,3.82372677 L9.72947422,3.57135153 C10.5458156,2.75434298 10.5458156,1.42991508 9.72947422,0.612906534" id="Fill-3" fill="#34C69A"></path>
                            <path d="M8.35333692,3.52774883 C8.32064323,3.49505514 8.2677662,3.49505514 8.23507251,3.52774883 L6.59421643,5.16893852 C6.52065564,5.24249931 6.4382542,5.30238213 6.35051503,5.34842018 C5.97186876,5.54675076 5.49263937,5.48686793 5.17470995,5.16893852 C5.17354232,5.16777089 5.17187428,5.16593604 5.17087345,5.1647684 C4.78488779,4.77444582 4.78488779,4.1429239 5.17087345,3.75260132 L4.40223821,2.98363248 C3.76487814,3.62382823 3.62809843,4.5742804 3.99156548,5.34842018 C4.09148139,5.56176317 4.22992914,5.7622622 4.40590791,5.93840778 C4.62975958,6.16225944 4.89197629,6.32456024 5.17087345,6.42581059 C5.40106369,6.50904604 5.64276344,6.55091398 5.88446319,6.55091398 C6.41990571,6.55091398 6.95484781,6.34674524 7.36335208,5.93840778 L9.00404136,4.29705128 C9.03673504,4.2643576 9.03673504,4.21148056 9.00404136,4.17878688 L8.35333692,3.52774883 Z" id="Fill-5" fill="#34C69A"></path>
                            <path d="M9.72939082,6.77441536 L8.12856782,5.17292514 L7.35959898,5.94206079 L8.96042197,7.54355101 C9.34807568,7.93137152 9.35174538,8.55939054 8.9722651,8.95171478 C8.58194251,9.35538172 7.92173022,9.34470623 7.52473546,8.94754467 L7.28854025,8.71118266 C7.25584657,8.67865578 7.20296953,8.67865578 7.17027585,8.71118266 L6.51957141,9.36222071 C6.48687772,9.39474759 6.48687772,9.44779143 6.51957141,9.48048511 L6.74575834,9.70683885 C7.56510215,10.5263495 8.92672746,10.5475336 9.74006631,9.72218486 C10.141398,9.31484822 10.341897,8.78424304 10.341897,8.25397146 C10.341897,7.71852895 10.1378951,7.18291963 9.72939082,6.77441536" id="Fill-7" fill="#F6C94A"></path>
                            <path d="M6.81536587,8.35620596 C6.84805955,8.32351227 6.84805955,8.27063524 6.81536587,8.23794155 L5.1750102,6.59691867 C5.1012826,6.52319107 5.04123297,6.44062283 4.99536173,6.35271685 C4.79753157,5.97440419 4.85708078,5.49484119 5.1750102,5.17674497 L5.1786799,5.17290846 C5.56916929,4.78658919 6.20019079,4.78658919 6.59068018,5.17290846 L7.35964902,4.40360601 C6.71895285,3.76641274 5.7688343,3.62946623 4.99536173,3.99310008 C4.78185194,4.09301599 4.58218693,4.23129694 4.40604136,4.40760932 C4.18218969,4.63146099 4.01972208,4.89334409 3.91897215,5.17290846 C3.83523628,5.4027651 3.79353515,5.64513207 3.79353515,5.88716543 C3.79353515,6.42260794 3.99787069,6.95788365 4.40604136,7.36605431 L6.04639702,9.0070772 C6.07909071,9.03977089 6.13196774,9.03977089 6.16466143,9.0070772 L6.81536587,8.35620596 Z" id="Fill-9" fill="#F6C94A"></path>
                            <path d="M6.42579391,5.1770619 C6.40410932,5.11517742 6.37892184,5.05412696 6.35056507,4.99374373 C6.25098277,4.78006714 6.11253502,4.57990171 5.93605583,4.40375613 C5.76074428,4.22811097 5.56174648,4.08999683 5.34923752,3.99008092 C5.29118955,3.96239137 5.23164034,3.93820471 5.17192432,3.91635332 C4.4336475,3.64863207 3.57593865,3.80976523 2.98278178,4.40008644 L3.75158382,5.16905528 C3.82431059,5.09716253 3.90554439,5.03844734 3.99161552,4.99341012 C4.3705954,4.79541315 4.84982479,4.85529597 5.1674206,5.17289178 L5.1710903,5.17672829 C5.48768528,5.49682616 5.54489923,5.97872443 5.34206493,6.35703708 C5.29786173,6.44060615 5.24081459,6.51883747 5.1710903,6.58922898 L5.94022594,7.35869824 C6.52737786,6.76787662 6.68967866,5.91350386 6.42579391,5.1770619" id="Fill-11" fill="#46AEE2"></path>
                            <path d="M2.10517315,6.81611649 L2.98289854,5.93805749 L2.2140965,5.16908864 L1.33637111,6.04698084 C1.30367742,6.07950772 1.30367742,6.13255156 1.33637111,6.16524524 L1.98690874,6.81611649 C2.01960243,6.84881017 2.07247946,6.84881017 2.10517315,6.81611649" id="Fill-13" fill="#46AEE2"></path>
                            <g id="编组" transform="translate(0.000000, 6.338572)">
                                <mask id="mask-4" fill="white">
                                    <use xlink:href="#path-3"></use>
                                </mask>
                                <g id="Clip-16"></g>
                                <path d="M2.80129846,2.62133306 C2.40980824,3.01299007 1.77278178,3.01299007 1.38179198,2.62133306 C0.990301765,2.22967604 0.990301765,1.59281638 1.38179198,1.20115936 L1.63199876,0.950952578 C1.66469245,0.918258892 1.66469245,0.865215054 1.63199876,0.832521368 L0.981461125,0.181650124 C0.948767439,0.148956438 0.895723601,0.148956438 0.863029915,0.181650124 L0.612656328,0.432190516 C-0.204185415,1.24936587 -0.204185415,2.57362696 0.612656328,3.39080232 C1.02132741,3.79913978 1.5561027,4.00380893 2.0910448,4.00330943 C2.62648732,4.00330943 3.16176303,3.79913978 3.57043411,3.39080232 L5.1710903,1.7891453 L4.40228825,1.02000965 L2.80129846,2.62133306 Z" id="Fill-15" fill="#46AEE2" mask="url(#mask-4)"></path>
                            </g>
                        </g>
                    </g>
                </g>
            </g>
        </g>
    </g>
</svg>