<?xml version="1.0" encoding="UTF-8"?>
<svg width="21px" height="21px" viewBox="0 0 21 21" version="1.1" xmlns="http://www.w3.org/2000/svg" xmlns:xlink="http://www.w3.org/1999/xlink">
    <title>symbols_DOT</title>
    <g id="swap" stroke="none" stroke-width="1" fill="none" fill-rule="evenodd">
        <g id="swap4" transform="translate(-478.000000, -463.000000)">
            <g id="编组-2" transform="translate(461.500000, 138.000000)">
                <g id="编组-24" transform="translate(1.000000, 303.000000)">
                    <g id="symbols_DOT" transform="translate(16.000000, 22.500000)">
                        <circle id="椭圆形" fill="#1E1E1E" cx="9.99023709" cy="9.99023709" r="9.99023709"></circle>
                        <g id="polkadot-new-dot-logo" transform="translate(4.081146, 2.262964)" fill-rule="nonzero">
                            <path d="M5.882707,0 C2.74324154,0.0126107191 0.201278822,2.55457154 0.188669997,5.694037 C0.188669997,6.32277117 0.290156217,6.94730289 0.488925912,7.5436152 C0.637252085,7.94956067 1.07742633,8.16814545 1.49057747,8.04263993 C1.88991762,7.88950949 2.10189708,7.45293881 1.97458904,7.04459194 C1.80584508,6.57979746 1.73078221,6.0867777 1.75300104,5.59315759 C1.82145918,3.32562398 3.71486971,1.54271549 5.98240333,1.61117599 C8.24993694,1.67963413 10.0328454,3.57304466 9.96438493,5.84057827 C9.90013027,7.96338194 8.22831552,9.68744435 6.10790444,9.81655637 C6.10790444,9.81655637 5.30862526,9.86519767 4.91108764,9.91383911 C4.7645631,9.93485695 4.61923956,9.96368155 4.47571766,10.0003126 C4.45530032,10.0213305 4.42227224,10.0213305 4.4012544,10.0009131 L4.4006539,10.0003126 C4.38624165,9.98169676 4.38624165,9.9552743 4.4006539,9.93665844 L4.5243591,9.26168409 L5.27499669,5.885616 C5.36507332,5.46405702 5.09664566,5.04910482 4.67508668,4.95902878 C4.25352769,4.86895215 3.8385755,5.13737981 3.74849946,5.55893879 C3.74849946,5.55893879 1.9631837,13.8225634 1.9631837,13.8976293 C1.86109699,14.2993708 2.10370312,14.7077177 2.50544394,14.8098051 C2.5096475,14.8110061 2.5144516,14.8122072 2.51865517,14.8128077 L2.56009035,14.8128077 C2.96123155,14.916696 3.37077912,14.6752908 3.47406727,14.2741496 C3.47586881,14.2675439 3.47767033,14.2609383 3.47887135,14.2537322 C3.47767033,14.2411215 3.47767033,14.2285107 3.47887135,14.2165005 C3.50109019,14.1192178 3.72628176,13.0196837 3.72628176,13.0196837 C3.89682676,12.1897779 4.56579468,11.553838 5.40290327,11.4253351 C5.57524933,11.3989127 6.29946563,11.3502714 6.29946563,11.3502714 C9.42692408,11.0386059 11.7094591,8.25043785 11.3972035,5.1229794 C11.1125611,2.27055188 8.74955566,0.074487848 5.88271385,0 L5.882707,0 Z" id="路径" fill="#FFFFFF"></path>
                            <path d="M6.22800387,13.128958 C5.7145678,13.0220671 5.21254132,13.3517467 5.10564959,13.8645839 C5.10444857,13.8693879 5.10384806,13.874192 5.10264705,13.8789961 C4.99155258,14.3888301 5.31462798,14.8926576 5.82506083,15.0037518 C5.82566134,15.0037518 5.82626185,15.0037518 5.82686235,15.0043523 L5.85328481,15.0043523 C6.35290989,15.1250549 6.85553672,14.8175934 6.97563909,14.3185687 C6.97684011,14.3149656 6.97744063,14.3107621 6.97864165,14.307159 L6.97864165,14.2549146 C7.06691664,13.739676 6.73783657,13.245457 6.22800406,13.1289582 L6.22800387,13.128958 Z" id="路径" fill="#E6007A"></path>
                        </g>
                    </g>
                </g>
            </g>
        </g>
    </g>
</svg>