<?xml version="1.0" encoding="UTF-8"?>
<svg width="21px" height="20px" viewBox="0 0 21 20" version="1.1" xmlns="http://www.w3.org/2000/svg" xmlns:xlink="http://www.w3.org/1999/xlink">
    <title>symbols_ETH</title>
    <g id="swap" stroke="none" stroke-width="1" fill="none" fill-rule="evenodd">
        <g id="swap4" transform="translate(-478.000000, -399.000000)" fill-rule="nonzero">
            <g id="编组-2" transform="translate(461.500000, 138.000000)">
                <g id="编组-24" transform="translate(1.000000, 239.000000)">
                    <g id="symbols_ETH" transform="translate(16.000000, 22.000000)">
                        <path d="M0,10.000003 L0,10.0000131 C0,15.5228711 4.47715365,20.0000248 10.0000116,20.0000248 C15.5228696,20.0000248 20.0000233,15.5228711 20.0000233,10.0000131 L20.0000233,10.0000147 C20.0000233,4.47715668 15.5228696,3.03202306e-06 10.0000116,3.03202306e-06 C4.47715365,3.03202306e-06 0,4.47715668 0,10.0000147 L0,10.000003 Z" id="路径" fill="#627EEA"></path>
                        <polygon id="路径" fill-opacity="0.600000024" fill="#FFFFFF" points="10.3108518 2.50000291 10.3108518 8.0433492 14.9966776 10.1375118"></polygon>
                        <polygon id="路径" fill="#FFFFFF" points="10.3108518 2.50000291 5.62500655 10.1375118 10.3108518 8.04416952"></polygon>
                        <polygon id="路径" fill-opacity="0.600000024" fill="#FFFFFF" points="10.3108518 13.730016 10.3108518 17.4966805 15.0000175 11.0100128"></polygon>
                        <polygon id="路径" fill="#FFFFFF" points="10.3108518 17.4967 10.3108518 13.7299964 5.62500655 11.009173 10.3108518 17.4958602"></polygon>
                        <polygon id="路径" fill-opacity="0.200000003" fill="#FFFFFF" points="10.3108518 12.8583548 14.9966776 10.1375118 10.3108518 8.04500936"></polygon>
                        <polygon id="路径" fill-opacity="0.600000024" fill="#FFFFFF" points="5.62500655 10.1375118 10.3108518 12.8583548 10.3108518 8.04500936 5.62500655 10.136672"></polygon>
                    </g>
                </g>
            </g>
        </g>
    </g>
</svg>