<?xml version="1.0" encoding="UTF-8"?>
<svg width="20px" height="20px" viewBox="0 0 20 20" version="1.1" xmlns="http://www.w3.org/2000/svg" xmlns:xlink="http://www.w3.org/1999/xlink">
    <title>symbols_BNB</title>
    <g id="swap" stroke="none" stroke-width="1" fill="none" fill-rule="evenodd">
        <g id="swap4" transform="translate(-416.000000, -404.000000)" fill-rule="nonzero">
            <g id="symbols_BNB" transform="translate(416.000000, 404.000000)">
                <path d="M0.294879685,10.0027954 L0.294879685,10.0027969 C0.294879685,15.364191 4.64114853,19.7104598 10.0025426,19.7104598 C15.3639367,19.7104598 19.7102056,15.364191 19.7102056,10.0027969 L19.7102056,10.0027969 C19.7102056,4.64140275 15.3639367,0.295133908 10.0025426,0.295133908 C4.64114853,0.295133908 0.294879685,4.64140275 0.294879685,10.0027969 L0.294879685,10.0027954 Z" id="路径" fill="#171A1D"></path>
                <path d="M8.41277286,10.0346176 L10.0368418,8.4105486 L11.6609108,10.0346176 L10.0368418,11.6586866 L8.41277286,10.0346176 Z M13.5806304,10.0346429 L15.2046994,8.41057387 L16.8287684,10.0346429 L15.2046994,11.6587118 L13.5806304,10.0346429 Z M3.24494056,10.0345923 L4.86900955,8.41052332 L6.49307853,10.0345923 L4.86900955,11.6586613 L3.24494056,10.0345923 Z M5.80914162,7.47069456 L10.0281217,3.25171447 L11.6521907,4.87578345 L7.4332106,9.09476355 L5.80914162,7.47069456 Z" id="形状" fill="#F5B638"></path>
                <path d="M12.6410292,9.09463717 L8.42204907,4.87568235 L10.0461433,3.25161336 L14.2651234,7.47059346 L12.6410292,9.09463717 Z M7.43351391,10.9959813 L11.652494,15.2149614 L10.028425,16.8390304 L5.80944493,12.6200503 L7.43351391,10.9959813 Z" id="形状" fill="#F5B638"></path>
                <polygon id="路径" fill="#F5B638" points="14.2652498 12.6202525 10.0462697 16.8392326 8.42220072 15.2151636 12.6411808 10.9961835"></polygon>
            </g>
        </g>
    </g>
</svg>