<?xml version="1.0" encoding="UTF-8"?>
<svg width="20px" height="20px" viewBox="0 0 20 20" version="1.1" xmlns="http://www.w3.org/2000/svg" xmlns:xlink="http://www.w3.org/1999/xlink">
    <title>wallet_yellower</title>
    <g id="wallet_yellower" stroke="none" stroke-width="1" fill="none" fill-rule="evenodd">
        <g id="wallet" transform="translate(0.000000, 1.000000)" fill="#F6C94A" fill-rule="nonzero">
            <path d="M16.1407449,1.6405644 L16.1407448,1.64056439 C15.8900532,0.977094721 15.157897,0.632499966 14.4868525,0.862146735 L7.05932962,3.55405659 L16.8544567,3.55405659 L16.1407432,1.64055468 L16.1407449,1.6405644 Z M13.6109797,10.7219796 L13.6109797,10.7219765 C13.6022224,9.835184 14.3140098,9.10919799 15.2008038,9.10043214 C15.2113767,9.10032773 15.2219505,9.10032775 15.2325234,9.10043221 L19.125,9.10043221 L19.125,5.53264957 L19.125,5.53264792 C19.1228316,4.81695211 18.5430687,4.23736726 17.8273713,4.23541732 L2.25901824,4.23541732 L2.2590182,4.23541732 C1.54347612,4.2375837 0.96395276,4.81710746 0.961785976,5.53264954 L0.961785976,15.9116918 L0.961785976,15.9116946 C0.963953902,16.6272367 1.54347775,17.2067585 2.25901982,17.2089236 L17.8273729,17.2089236 L17.8273729,17.2089236 C18.5430687,17.2069738 19.1228316,16.6273872 19.125,15.9116914 L19.125,12.3439088 L15.2321188,12.3439088 L15.2321188,12.3439088 C14.3453263,12.3526678 13.6193387,11.6408803 13.6105744,10.7540879 C13.61047,10.743515 13.61047,10.7329412 13.6105744,10.7223683 L13.6109797,10.7219796 Z M14.2595958,10.7219796 L14.2595958,10.7219798 C14.2595958,11.3490834 14.7679648,11.8574524 15.3950685,11.8574524 C16.0221721,11.8574524 16.5305411,11.3490834 16.5305411,10.7219798 L16.5305411,10.7219798 C16.5305411,10.0948762 16.0221721,9.58650717 15.3950685,9.58650717 C14.7679648,9.58650717 14.2595958,10.0948762 14.2595958,10.7219798 L14.2595958,10.7219796 Z" id="形状"></path>
        </g>
    </g>
</svg>